# xmcd
#
# Track frame offsets: 
#        150
#        21163
#        43213
#        67713
#        98254
#        123194
#        149309
#        163934
#        184163
#        210515
#
# Disc length: 3202 seconds
#
# Revision: 2
# Processed by: cddbd v1.5.2PL0 Copyright (c) Steve Scherf et al.
# Submitted via: ExactAudioCopy v1.0b3
#
DISCID=800c800a
DTITLE=Sonny Moorman Group - More live as hell
DYEAR=2010
DGENRE=Blues
TTITLE0=Telegraph Road
TTITLE1=Crossroads Motel
TTITLE2=Texas Blues 
TTITLE3=Last call
TTITLE4=Up to my neck in the blues
TTITLE5=Old Slow Blues
TTITLE6=Remembering Cal
TTITLE7=House of thunder
TTITLE8=Sonny's Blues
TTITLE9=Black magic woman
EXTD=
EXTT0=
EXTT1=
EXTT2=
EXTT3=
EXTT4=
EXTT5=
EXTT6=
EXTT7=
EXTT8=
EXTT9=
PLAYORDER=
